<svg xmlns="http://www.w3.org/2000/svg" viewBox="0 0 64 64">
  <defs>
    <linearGradient id="cg" x1="0%" y1="0%" x2="100%" y2="100%">
      <stop offset="0%" stop-color="#5BB8F5"/>
      <stop offset="50%" stop-color="#3A8FD6"/>
      <stop offset="100%" stop-color="#2B6CB0"/>
    </linearGradient>
    <linearGradient id="b1" x1="0%" y1="0%" x2="100%" y2="100%">
      <stop offset="0%" stop-color="#7ECEF4" stop-opacity="0.7"/>
      <stop offset="100%" stop-color="#4AA3D8" stop-opacity="0.5"/>
    </linearGradient>
    <linearGradient id="b2" x1="0%" y1="0%" x2="100%" y2="100%">
      <stop offset="0%" stop-color="#A8E0F8" stop-opacity="0.6"/>
      <stop offset="100%" stop-color="#5DADE2" stop-opacity="0.4"/>
    </linearGradient>
    <clipPath id="cc">
      <path d="M9,38 C3,38 0,34.4 0,30.1 C0,25.6 3.6,22 8.4,22 C8.4,15.1 13.5,9 21,9 C24.6,9 27.9,10.5 30,12.9 C32.4,8.1 37.5,4.8 43.5,4.8 C51.6,4.8 58.2,11.4 58.2,19.8 C60,22.2 64.2,25.2 64.2,30.3 C64.2,35.4 60,38 55.5,38 Z"/>
    </clipPath>
  </defs>
  <g transform="translate(0, 10)">
    <path d="M9,38 C3,38 0,34.4 0,30.1 C0,25.6 3.6,22 8.4,22 C8.4,15.1 13.5,9 21,9 C24.6,9 27.9,10.5 30,12.9 C32.4,8.1 37.5,4.8 43.5,4.8 C51.6,4.8 58.2,11.4 58.2,19.8 C60,22.2 64.2,25.2 64.2,30.3 C64.2,35.4 60,38 55.5,38 Z" fill="url(#cg)"/>
    <g clip-path="url(#cc)">
      <ellipse cx="45" cy="16" rx="11" ry="10" fill="url(#b1)"/>
      <ellipse cx="24" cy="18" rx="9.5" ry="9" fill="url(#b2)"/>
      <ellipse cx="36" cy="12" rx="6.5" ry="6" fill="url(#b1)"/>
      <ellipse cx="33" cy="28" rx="13" ry="7.5" fill="url(#b1)"/>
      <ellipse cx="13" cy="27" rx="6.5" ry="6" fill="url(#b2)"/>
      <ellipse cx="52" cy="25" rx="6" ry="5.5" fill="url(#b2)"/>
      <ellipse cx="27" cy="13" rx="5.5" ry="3" fill="white" opacity="0.25"/>
      <ellipse cx="46" cy="11" rx="4" ry="2.4" fill="white" opacity="0.2"/>
    </g>
  </g>
</svg>
