<?xml version="1.0" encoding="UTF-8"?>
<svg xmlns="http://www.w3.org/2000/svg" viewBox="0 0 600 180" width="600" height="180">
  <defs>
    <linearGradient id="bgGrad" x1="0%" y1="0%" x2="100%" y2="100%">
      <stop offset="0%" style="stop-color:#48C9B0;stop-opacity:1" />
      <stop offset="50%" style="stop-color:#3AAFCF;stop-opacity:1" />
      <stop offset="100%" style="stop-color:#2E86C1;stop-opacity:1" />
    </linearGradient>
  </defs>
  
  <!-- Grupo da Nuvem Branca -->
  <g transform="translate(15, 15)">
    <path d="M 30,120 
             C 10,120 0,108 0,95 
             C 0,80 12,68 28,68 
             C 28,45 45,25 70,25 
             C 82,25 93,30 100,38 
             C 108,22 125,12 145,12 
             C 172,12 194,34 194,60 
             C 194,62 194,64 193,66 
             C 205,70 214,82 214,95 
             C 214,112 200,120 185,120 
             Z" 
          fill="white" />
  </g>
  
  <!-- Texto SYSLED branco -->
  <text x="260" y="115" 
        font-family="'Montserrat', 'Helvetica Neue', 'Arial', sans-serif" 
        font-weight="800" 
        font-size="72" 
        letter-spacing="4" 
        fill="white">SYSLED</text>
</svg>
