<?xml version="1.0" encoding="UTF-8" standalone="no"?>
<svg width="100px" height="13px" viewBox="0 0 100 13" version="1.1" xmlns="http://www.w3.org/2000/svg" xmlns:xlink="http://www.w3.org/1999/xlink">
    <!-- Generator: Sketch 50.2 (55047) - http://www.bohemiancoding.com/sketch -->
    <title>logo netshoes</title>
    <desc>Created with Sketch.</desc>
    <defs></defs>
    <g id="Page-1" stroke="none" stroke-width="1" fill="none" fill-rule="evenodd">
        <g id="2.2-Frete-com-2-sellers" transform="translate(-110.000000, -39.000000)" fill="#7B2D8E">
            <path d="M201.082283,45.5233935 C200.223742,44.9736078 198.439358,43.8925451 199.469522,41.3526786 C200.05296,39.9275266 201.013297,39.2582772 203.467351,39.2582772 L209.630671,39.2582772 C209.938585,39.2582772 210.05931,39.4471477 209.972657,39.755482 L209.853614,40.1504695 C209.457785,41.4204028 209.114537,41.9356953 207.604835,41.9356953 L202.970147,41.9356953 C202.558333,41.9356953 202.300056,42.1245658 202.300056,42.4509879 C202.300056,42.7080032 202.472101,42.8455547 202.815348,43.0684976 L206.248669,45.2659575 C207.43237,46.0205982 208.806203,47.0680092 207.86185,49.4366724 C207.192601,51.1015931 206.180104,51.5138272 204.120195,51.5138272 L197.357033,51.5138272 C197.013785,51.5138272 196.927973,51.3241154 197.031032,50.9644622 L197.13409,50.6212143 C197.529498,49.2991208 197.940471,48.8355678 199.382869,48.8355678 L204.359964,48.8355678 C204.77304,48.8355678 205.030055,48.6639439 205.030055,48.3383631 C205.030055,48.0805065 204.858431,47.9433756 204.514762,47.720012 L201.082283,45.5233935 Z M116.048495,42.2448708 C116.03209,42.0387538 115.979088,41.9356953 115.757407,41.9356953 C115.550869,41.9356953 115.465057,42.0219279 115.413318,42.2448708 L113.439642,49.7286014 C113.095974,51.0502742 112.632421,51.5138272 111.190443,51.5138272 L110.366816,51.5138272 C110.023989,51.5138272 109.937756,51.3241154 110.040814,50.9644622 L112.54745,41.764492 C113.026987,39.9788455 113.851456,39.1552187 116.254612,39.1552187 C117.902286,39.1552187 118.656927,39.5670321 118.79532,41.7304196 L119.223959,48.5268129 C119.241205,48.73293 119.275278,48.8355678 119.498221,48.8355678 C119.703496,48.8355678 119.789729,48.7501765 119.84231,48.5268129 L121.764667,41.0430824 C122.107494,39.7205683 122.554221,39.2582772 123.996199,39.2582772 L124.836652,39.2582772 C125.1799,39.2582772 125.265711,39.4471477 125.162653,39.8068009 L122.691352,49.0071918 C122.210973,50.7924176 121.403331,51.6168857 119.018683,51.6168857 C117.335675,51.6168857 116.54612,51.204231 116.425815,49.0421055 L116.048495,42.2448708 Z M151.578863,45.5233935 C150.721584,44.9736078 148.9372,43.8925451 149.965682,41.3526786 C150.54954,39.9275266 151.510718,39.2582772 153.965614,39.2582772 L160.12683,39.2582772 C160.435585,39.2582772 160.557152,39.4471477 160.47092,39.755482 L160.350615,40.1504695 C159.955627,41.4204028 159.611538,41.9356953 158.101836,41.9356953 L153.467147,41.9356953 C153.056175,41.9356953 152.797898,42.1245658 152.797898,42.4509879 C152.797898,42.7080032 152.969101,42.8455547 153.313611,43.0684976 L156.74567,45.2659575 C157.929371,46.0205982 159.303624,47.0680092 158.359692,49.4366724 C157.689602,51.1015931 156.676263,51.5138272 154.616355,51.5138272 L147.854455,51.5138272 C147.511207,51.5138272 147.425815,51.3241154 147.528453,50.9644622 L147.63067,50.6212143 C148.026079,49.2991208 148.437892,48.8355678 149.880291,48.8355678 L154.857806,48.8355678 C155.269199,48.8355678 155.527476,48.6639439 155.527476,48.3383631 C155.527476,48.0805065 155.355852,47.9433756 155.011763,47.720012 L151.578863,45.5233935 Z M149.091157,39.2582772 C149.433984,39.2582772 149.519796,39.4639736 149.415476,39.8068009 L149.3141,40.1504695 C148.919112,41.4721423 148.506457,41.9356953 147.0649,41.9356953 L146.619014,41.9356953 C144.885528,41.9356953 144.507787,42.5536257 144.044234,44.287112 L142.58501,49.7286014 C142.223674,51.0671001 141.777788,51.5138272 140.336652,51.5138272 L139.306908,51.5138272 C138.962819,51.5138272 138.877427,51.3241154 138.981327,50.9644622 L141.262916,42.4850603 C141.366396,42.1245658 141.280163,41.9356953 140.938177,41.9356953 L137.437132,41.9356953 C137.091781,41.9356953 137.00639,41.7468248 137.109027,41.3863304 L137.211665,41.0430824 C137.607073,39.7205683 138.00164,39.2582772 139.444039,39.2582772 L149.091157,39.2582772 Z M171.061128,49.7286014 C170.700213,51.0502742 170.254327,51.5138272 168.81277,51.5138272 L167.782185,51.5138272 C167.438937,51.5138272 167.353966,51.3241154 167.457025,50.9644622 L168.520841,46.9986024 C168.623479,46.6389493 168.537246,46.4500788 168.19484,46.4500788 L165.620059,46.4500788 C163.886573,46.4500788 163.474339,47.0680092 163.028453,48.8010748 L162.788264,49.7286014 C162.444175,51.0671001 161.981042,51.5138272 160.539064,51.5138272 L159.509321,51.5138272 C159.166073,51.5138272 159.080261,51.3241154 159.182899,50.9644622 L161.859896,41.0430824 C162.221232,39.7205683 162.649871,39.2582772 164.091849,39.2582772 L165.122434,39.2582772 C165.465261,39.2582772 165.550653,39.4471477 165.448856,39.8068009 L164.505345,43.3086871 C164.401445,43.6696022 164.487257,43.858052 164.830084,43.858052 L167.42127,43.858052 C169.156018,43.858052 169.550585,43.239701 169.996471,41.5062147 L170.116776,41.0430824 C170.460865,39.7045837 170.923156,39.2582772 172.365975,39.2582772 L173.395298,39.2582772 C173.739808,39.2582772 173.8252,39.4471477 173.7213,39.8068009 L171.061128,49.7286014 Z M198.163413,39.2582772 C198.508344,39.2582772 198.593315,39.4471477 198.490256,39.8068009 L198.421691,40.0654988 C198.060776,41.4035769 197.631716,41.8498833 196.190158,41.8498833 L192.654621,41.8498833 C191.521818,41.8498833 191.194555,42.2099571 190.919872,43.239701 L190.868974,43.4289921 C190.766336,43.7894866 190.852148,43.9779364 191.194555,43.9779364 L196.070695,43.9779364 C196.413522,43.9779364 196.498913,44.1672276 196.396275,44.5273014 L196.327289,44.7847373 C195.966374,46.1236567 195.538156,46.5699632 194.096178,46.5699632 L191.366179,46.5699632 C190.233376,46.5699632 189.873303,46.9304576 189.615867,47.9597808 L189.512808,48.3724355 C189.426576,48.73293 189.495562,48.9218005 189.838389,48.9218005 L196.13926,48.9218005 C196.482087,48.9218005 196.567899,49.1102503 196.46442,49.4707448 L196.396275,49.7286014 C196.03536,51.0671001 195.606721,51.5138272 194.164323,51.5138272 L186.079908,51.5138272 C185.73666,51.5138272 185.65169,51.3241154 185.753907,50.9644622 L187.985018,42.6226118 C188.654688,40.1336436 189.65036,39.2582772 192.208735,39.2582772 L198.163413,39.2582772 Z M136.23282,39.2582772 C136.57775,39.2582772 136.663142,39.4471477 136.560504,39.8068009 L136.491938,40.0654988 C136.130602,41.4035769 135.701543,41.8498833 134.260827,41.8498833 L130.724868,41.8498833 C129.591645,41.8498833 129.264802,42.2099571 128.990541,43.239701 L128.939222,43.4289921 C128.835742,43.7894866 128.921554,43.9779364 129.264802,43.9779364 L134.13968,43.9779364 C134.482928,43.9779364 134.569161,44.1672276 134.466102,44.5273014 L134.397116,44.7847373 C134.037463,46.1236567 133.607983,46.5699632 132.166005,46.5699632 L129.436847,46.5699632 C128.303203,46.5699632 127.94313,46.9304576 127.686535,47.9597808 L127.583476,48.3724355 C127.497244,48.73293 127.56623,48.9218005 127.909478,48.9218005 L134.209087,48.9218005 C134.551914,48.9218005 134.637726,49.1102503 134.534668,49.4707448 L134.466102,49.7286014 C134.105187,51.0671001 133.676548,51.5138272 132.23457,51.5138272 L124.150156,51.5138272 C123.806908,51.5138272 123.721096,51.3241154 123.824575,50.9644622 L126.056107,42.6226118 C126.724936,40.1336436 127.719766,39.2582772 130.278141,39.2582772 L136.23282,39.2582772 Z M182.54437,45.3341023 C183.230866,42.8623806 183.282606,41.6782594 180.398229,41.6782594 C178.424974,41.6782594 177.807044,42.2276243 176.931257,45.3862625 C176.24434,47.8579842 176.175775,49.0421055 179.025658,49.0421055 C181.118798,49.0421055 181.685409,48.4065079 182.54437,45.3341023 Z M173.669981,45.1284059 C174.940755,40.0478316 177.34307,39 180.77597,39 C186.302851,39 186.801318,41.7131731 185.822893,45.5911176 C184.621525,50.3461111 182.54437,51.7195236 178.631091,51.7195236 C173.550096,51.7195236 172.605323,49.4026 173.669981,45.1284059 L173.669981,45.1284059 Z" id="logo-netshoes"></path>
        </g>
    </g>
</svg>